<?xml version="1.0" encoding="UTF-8"?>
<svg width="311px" height="90px" viewBox="0 0 311 90" version="1.1" xmlns="http://www.w3.org/2000/svg" xmlns:xlink="http://www.w3.org/1999/xlink">
    <title>appstore</title>
    <defs>
        <path d="M124.272461,37 C127.205078,37 128.927734,35.1748047 128.927734,32.0644531 C128.927734,28.9609375 127.198242,27.1357422 124.272461,27.1357422 L120.957031,27.1357422 L120.957031,37 L124.272461,37 Z M124.19043,35.8925781 L122.1875,35.8925781 L122.1875,28.2431641 L124.19043,28.2431641 C126.432617,28.2431641 127.669922,29.6103516 127.669922,32.078125 C127.669922,34.5253906 126.425781,35.8925781 124.19043,35.8925781 Z M133.220703,37.1230469 C135.182617,37.1230469 136.508789,35.7080078 136.508789,33.4453125 C136.508789,31.1757812 135.182617,29.7675781 133.220703,29.7675781 C131.251953,29.7675781 129.925781,31.1757812 129.925781,33.4453125 C129.925781,35.7080078 131.251953,37.1230469 133.220703,37.1230469 Z M133.220703,36.0771484 C131.962891,36.0771484 131.135742,35.1201172 131.135742,33.4453125 C131.135742,31.7705078 131.962891,30.8134766 133.220703,30.8134766 C134.478516,30.8134766 135.298828,31.7705078 135.298828,33.4453125 C135.298828,35.1201172 134.478516,36.0771484 133.220703,36.0771484 Z M140.323242,37 L141.922852,31.4970703 L141.950195,31.4970703 L143.556641,37 L144.766602,37 L146.749023,29.890625 L145.573242,29.890625 L144.151367,35.6738281 L144.124023,35.6738281 L142.510742,29.890625 L141.362305,29.890625 L139.755859,35.6738281 L139.728516,35.6738281 L138.306641,29.890625 L137.124023,29.890625 L139.113281,37 L140.323242,37 Z M148.90918,37 L148.90918,32.8164062 C148.90918,31.6132812 149.640625,30.8203125 150.761719,30.8203125 C151.855469,30.8203125 152.395508,31.4492187 152.395508,32.5976562 L152.395508,37 L153.584961,37 L153.584961,32.3857422 C153.584961,30.7724609 152.682617,29.7675781 151.124023,29.7675781 C150.023438,29.7675781 149.264648,30.2597656 148.868164,31.0253906 L148.84082,31.0253906 L148.84082,29.890625 L147.719727,29.890625 L147.719727,37 L148.90918,37 Z M156.34668,37 L156.34668,27.1357422 L155.157227,27.1357422 L155.157227,37 L156.34668,37 Z M160.899414,37.1230469 C162.861328,37.1230469 164.1875,35.7080078 164.1875,33.4453125 C164.1875,31.1757812 162.861328,29.7675781 160.899414,29.7675781 C158.930664,29.7675781 157.604492,31.1757812 157.604492,33.4453125 C157.604492,35.7080078 158.930664,37.1230469 160.899414,37.1230469 Z M160.899414,36.0771484 C159.641602,36.0771484 158.814453,35.1201172 158.814453,33.4453125 C158.814453,31.7705078 159.641602,30.8134766 160.899414,30.8134766 C162.157227,30.8134766 162.977539,31.7705078 162.977539,33.4453125 C162.977539,35.1201172 162.157227,36.0771484 160.899414,36.0771484 Z M167.461914,37.1230469 C168.418945,37.1230469 169.321289,36.5898437 169.745117,35.7763672 L169.772461,35.7763672 L169.772461,37 L170.900391,37 L170.900391,32.0849609 C170.900391,30.6699219 169.847656,29.7675781 168.179688,29.7675781 C166.498047,29.7675781 165.445312,30.7109375 165.363281,31.9414062 L166.511719,31.9414062 C166.662109,31.2441406 167.236328,30.8134766 168.152344,30.8134766 C169.136719,30.8134766 169.710938,31.3330078 169.710938,32.2011719 L169.710938,32.7958984 L167.673828,32.9121094 C166.033203,33.0078125 165.09668,33.7734375 165.09668,34.9902344 C165.09668,36.2685547 166.046875,37.1230469 167.461914,37.1230469 Z M167.728516,36.1113281 C166.874023,36.1113281 166.306641,35.6669922 166.306641,34.9902344 C166.306641,34.3203125 166.853516,33.8964844 167.810547,33.8349609 L169.710938,33.71875 L169.710938,34.2998047 C169.710938,35.3251953 168.849609,36.1113281 167.728516,36.1113281 Z M175.104492,37.1230469 C176.129883,37.1230469 176.943359,36.6171875 177.401367,35.796875 L177.421875,35.796875 L177.421875,37 L178.556641,37 L178.556641,27.1357422 L177.367188,27.1357422 L177.367188,31.0458984 L177.339844,31.0458984 C176.916016,30.2666016 176.095703,29.7675781 175.077148,29.7675781 C173.286133,29.7675781 172.0625,31.2167969 172.0625,33.4453125 C172.0625,35.6738281 173.292969,37.1230469 175.104492,37.1230469 Z M175.330078,36.0771484 C174.072266,36.0771484 173.279297,35.0585937 173.279297,33.4453125 C173.279297,31.8388672 174.072266,30.8134766 175.330078,30.8134766 C176.553711,30.8134766 177.374023,31.859375 177.374023,33.4453125 C177.374023,35.0380859 176.553711,36.0771484 175.330078,36.0771484 Z M185.980469,37.1230469 C187.942383,37.1230469 189.268555,35.7080078 189.268555,33.4453125 C189.268555,31.1757812 187.942383,29.7675781 185.980469,29.7675781 C184.011719,29.7675781 182.685547,31.1757812 182.685547,33.4453125 C182.685547,35.7080078 184.011719,37.1230469 185.980469,37.1230469 Z M185.980469,36.0771484 C184.722656,36.0771484 183.895508,35.1201172 183.895508,33.4453125 C183.895508,31.7705078 184.722656,30.8134766 185.980469,30.8134766 C187.238281,30.8134766 188.058594,31.7705078 188.058594,33.4453125 C188.058594,35.1201172 187.238281,36.0771484 185.980469,36.0771484 Z M191.654297,37 L191.654297,32.8164062 C191.654297,31.6132812 192.385742,30.8203125 193.506836,30.8203125 C194.600586,30.8203125 195.140625,31.4492187 195.140625,32.5976562 L195.140625,37 L196.330078,37 L196.330078,32.3857422 C196.330078,30.7724609 195.427734,29.7675781 193.869141,29.7675781 C192.768555,29.7675781 192.009766,30.2597656 191.613281,31.0253906 L191.585938,31.0253906 L191.585938,29.890625 L190.464844,29.890625 L190.464844,37 L191.654297,37 Z M202.90625,37.0546875 C203.186523,37.0546875 203.514648,37.0341797 203.658203,37 L203.658203,36.0019531 C203.576172,36.015625 203.302734,36.0361328 203.166016,36.0361328 C202.557617,36.0361328 202.28418,35.7421875 202.28418,35.0927734 L202.28418,30.8681641 L203.665039,30.8681641 L203.665039,29.890625 L202.28418,29.890625 L202.28418,28.1748047 L201.094727,28.1748047 L201.094727,29.890625 L200.035156,29.890625 L200.035156,30.8681641 L201.094727,30.8681641 L201.094727,35.1542969 C201.094727,36.5214844 201.600586,37.0546875 202.90625,37.0546875 Z M206.180664,37 L206.180664,32.8574219 C206.180664,31.6269531 206.912109,30.8203125 208.094727,30.8203125 C209.208984,30.8203125 209.776367,31.4970703 209.776367,32.625 L209.776367,37 L210.96582,37 L210.96582,32.40625 C210.96582,30.8203125 210.022461,29.7675781 208.463867,29.7675781 C207.383789,29.7675781 206.604492,30.2324219 206.208008,31.0253906 L206.180664,31.0253906 L206.180664,27.1357422 L204.991211,27.1357422 L204.991211,37 L206.180664,37 Z M215.402344,37.1230469 C216.954102,37.1230469 218.157227,36.2070312 218.362305,34.9628906 L217.193359,34.9628906 C216.995117,35.6328125 216.332031,36.0908203 215.429688,36.0908203 C214.151367,36.0908203 213.351562,35.1953125 213.351562,33.8349609 L213.351562,33.7666016 L218.451172,33.7666016 L218.451172,33.3154297 C218.451172,31.1621094 217.268555,29.7675781 215.347656,29.7675781 C213.385742,29.7675781 212.12793,31.2646484 212.12793,33.4726562 C212.12793,35.7080078 213.365234,37.1230469 215.402344,37.1230469 Z M217.220703,32.8369141 L213.358398,32.8369141 C213.433594,31.6542969 214.212891,30.7998047 215.327148,30.7998047 C216.448242,30.7998047 217.193359,31.6474609 217.220703,32.8369141 Z" id="path-1"></path>
        <path d="M123.793945,61 L125.727539,55.2871094 L133.78418,55.2871094 L135.717773,61 L139.189453,61 L131.557617,39.8623047 L128.012695,39.8623047 L120.380859,61 L123.793945,61 Z M132.949219,52.6503906 L126.5625,52.6503906 L129.711914,43.3779297 L129.799805,43.3779297 L132.949219,52.6503906 Z M144.301758,66.0976562 L144.301758,58.4658203 L144.375,58.4658203 C145.253906,60.1796875 147.011719,61.2636719 149.223633,61.2636719 C153.09082,61.2636719 155.654297,58.1728516 155.654297,53.2949219 C155.654297,48.4169922 153.076172,45.3408203 149.165039,45.3408203 C146.938477,45.3408203 145.166016,46.46875 144.257812,48.2412109 L144.199219,48.2412109 L144.199219,45.5898438 L141.137695,45.5898438 L141.137695,66.0976562 L144.301758,66.0976562 Z M148.330078,58.5830078 C145.898438,58.5830078 144.287109,56.5029297 144.287109,53.2949219 C144.287109,50.1162109 145.913086,48.0068359 148.330078,48.0068359 C150.834961,48.0068359 152.402344,50.0722656 152.402344,53.2949219 C152.402344,56.5322266 150.834961,58.5830078 148.330078,58.5830078 Z M161.25,66.0976562 L161.25,58.4658203 L161.323242,58.4658203 C162.202148,60.1796875 163.959961,61.2636719 166.171875,61.2636719 C170.039062,61.2636719 172.602539,58.1728516 172.602539,53.2949219 C172.602539,48.4169922 170.024414,45.3408203 166.113281,45.3408203 C163.886719,45.3408203 162.114258,46.46875 161.206055,48.2412109 L161.147461,48.2412109 L161.147461,45.5898438 L158.085938,45.5898438 L158.085938,66.0976562 L161.25,66.0976562 Z M165.27832,58.5830078 C162.84668,58.5830078 161.235352,56.5029297 161.235352,53.2949219 C161.235352,50.1162109 162.861328,48.0068359 165.27832,48.0068359 C167.783203,48.0068359 169.350586,50.0722656 169.350586,53.2949219 C169.350586,56.5322266 167.783203,58.5830078 165.27832,58.5830078 Z M188.701172,61.3515625 C193.623047,61.3515625 196.757812,58.8466797 196.757812,54.8623047 C196.757812,51.7861328 194.941406,50.0136719 190.517578,49.0761719 L188.203125,48.5927734 C185.463867,48.0068359 184.379883,46.9814453 184.379883,45.4433594 C184.379883,43.5097656 186.196289,42.3085938 188.671875,42.3085938 C191.235352,42.3085938 192.978516,43.6123047 193.183594,45.7363281 L196.362305,45.7363281 C196.259766,42.0449219 193.198242,39.5107422 188.71582,39.5107422 C184.21875,39.5107422 181.040039,42.0009766 181.040039,45.6191406 C181.040039,48.6660156 182.958984,50.6289062 187.192383,51.5224609 L189.492188,52.0058594 C192.319336,52.6210938 193.432617,53.6464844 193.432617,55.2871094 C193.432617,57.1767578 191.513672,58.5537109 188.833008,58.5537109 C186.020508,58.5537109 184.02832,57.2939453 183.735352,55.1992188 L180.541992,55.1992188 C180.74707,58.9638672 183.925781,61.3515625 188.701172,61.3515625 Z M204.580078,61.1025391 C205.283203,61.1025391 205.986328,61.0439453 206.337891,60.9560547 L206.337891,58.4511719 C206.132812,58.4951172 205.620117,58.5244141 205.297852,58.5244141 C204.008789,58.5244141 203.422852,57.9238281 203.422852,56.5908203 L203.422852,48.0947266 L206.352539,48.0947266 L206.352539,45.5898438 L203.422852,45.5898438 L203.422852,41.9423828 L200.244141,41.9423828 L200.244141,45.5898438 L198.00293,45.5898438 L198.00293,48.0947266 L200.244141,48.0947266 L200.244141,56.9423828 C200.244141,59.9160156 201.459961,61.1025391 204.580078,61.1025391 Z M215.200195,61.2929688 C219.609375,61.2929688 222.509766,58.2607422 222.509766,53.2949219 C222.509766,48.34375 219.594727,45.3115234 215.200195,45.3115234 C210.805664,45.3115234 207.890625,48.34375 207.890625,53.2949219 C207.890625,58.2607422 210.791016,61.2929688 215.200195,61.2929688 Z M215.200195,58.6855469 C212.724609,58.6855469 211.113281,56.7226562 211.113281,53.2949219 C211.113281,49.8818359 212.724609,47.9189453 215.200195,47.9189453 C217.675781,47.9189453 219.287109,49.8818359 219.287109,53.2949219 C219.287109,56.7226562 217.69043,58.6855469 215.200195,58.6855469 Z M228.120117,61 L228.120117,51.7714844 C228.120117,49.5888672 229.379883,48.2265625 231.416016,48.2265625 C232.03125,48.2265625 232.587891,48.2998047 232.836914,48.4023438 L232.836914,45.4580078 C232.602539,45.4140625 232.207031,45.3408203 231.75293,45.3408203 C229.936523,45.3408203 228.55957,46.4101562 228.046875,48.2119141 L227.973633,48.2119141 L227.973633,45.5898438 L224.956055,45.5898438 L224.956055,61 L228.120117,61 Z M240.717773,61.2929688 C244.248047,61.2929688 246.914062,59.2861328 247.353516,56.4736328 L244.350586,56.4736328 C243.925781,57.8212891 242.592773,58.7294922 240.791016,58.7294922 C238.256836,58.7294922 236.645508,56.9570312 236.645508,54.2763672 L236.645508,54.0859375 L247.529297,54.0859375 L247.529297,53.0019531 C247.529297,48.3291016 244.863281,45.3115234 240.585938,45.3115234 C236.235352,45.3115234 233.452148,48.5341797 233.452148,53.3681641 C233.452148,58.2314453 236.191406,61.2929688 240.717773,61.2929688 Z M244.365234,51.8740234 L236.660156,51.8740234 C236.821289,49.5449219 238.374023,47.8603516 240.585938,47.8603516 C242.797852,47.8603516 244.291992,49.515625 244.365234,51.8740234 Z" id="path-2"></path>
    </defs>
    <g id="Page-1" stroke="none" stroke-width="1" fill="none" fill-rule="evenodd">
        <g id="appstore" fill-rule="nonzero">
            <rect id="Rectangle_552" fill="#FFFFFF" x="0" y="0" width="311" height="90" rx="20"></rect>
            <g id="Downloadonthe">
                <use fill="#000000" xlink:href="#path-1"></use>
                <use fill="#343537" xlink:href="#path-1"></use>
            </g>
            <g id="AppStore">
                <use fill="#000000" xlink:href="#path-2"></use>
                <use fill="#343537" xlink:href="#path-2"></use>
            </g>
            <path d="M73.62,19.952 L73.976,19.952 C74.2292483,22.8991557 73.2519695,25.8197717 71.276,28.021 C69.676,29.916 67.476,31.753 63.919,31.475 C63.7091085,28.598899 64.7045687,25.765025 66.667,23.652 C68.4952159,21.6622439 70.9483659,20.3568139 73.62,19.952 Z" id="Path_998" fill="#343537"></path>
            <path d="M84.381,56.652 L84.381,56.752 C83.4200028,59.6275939 82.0153789,62.3352824 80.218,64.777 C78.631,66.962 76.685,69.901 73.212,69.901 C70.212,69.901 68.217,67.971 65.141,67.918 C61.887,67.866 60.098,69.533 57.123,69.952 L56.108,69.952 C53.923,69.636 52.16,67.906 50.876,66.347 C46.5942051,61.2109839 44.0528844,54.8485786 43.618,48.176 L43.618,45.939 C43.849,40.49 46.496,36.059 50.018,33.912 C52.1604032,32.5098133 54.7313011,31.9144027 57.272,32.232 C58.4874646,32.450931 59.6775652,32.7926829 60.824,33.252 C61.9295735,33.8294716 63.1350849,34.1909214 64.376,34.317 C65.2408016,34.1921781 66.0812807,33.9351777 66.868,33.555 C69.318,32.67 71.72,31.655 74.886,32.132 C78.686,32.707 81.392,34.398 83.06,37.006 C79.842,39.052 77.298,42.141 77.732,47.412 C78.119,52.201 80.898,55.002 84.381,56.652 Z" id="Path_999" fill="#343537"></path>
        </g>
    </g>
</svg>