<?xml version="1.0" encoding="UTF-8"?>
<svg width="131px" height="131px" viewBox="0 0 131 131" version="1.1" xmlns="http://www.w3.org/2000/svg" xmlns:xlink="http://www.w3.org/1999/xlink">
    <title>lunabase</title>
    <defs>
        <path d="M18.541,117.85 L18.541,115.75 L10.396,115.75 L10.396,108.49 L7.351,108.49 L7.351,117.85 L18.541,117.85 Z M30.226,117.85 C30.496,117.85 30.771,117.815 31.051,117.745 C31.331,117.675 31.5835,117.5675 31.8085,117.4225 C32.0335,117.2775 32.2185,117.1 32.3635,116.89 C32.5085,116.68 32.581,116.44 32.581,116.17 L32.581,108.49 L29.521,108.49 L29.521,115.69 L23.056,115.69 L23.056,108.49 L20.011,108.49 L20.011,116.17 C20.011,116.47 20.0785,116.725 20.2135,116.935 C20.3485,117.145 20.526,117.3175 20.746,117.4525 C20.966,117.5875 21.2185,117.6875 21.5035,117.7525 C21.7885,117.8175 22.076,117.85 22.366,117.85 L30.226,117.85 Z M37.126,117.85 L37.126,112.24 L43.276,117.85 L46.621,117.85 L46.621,108.49 L43.576,108.49 L43.576,114.13 L37.471,108.49 L34.051,108.49 L34.051,117.85 L37.126,117.85 Z M51.496,117.85 L52.216,116.59 L57.556,116.59 L58.246,117.85 L62.101,117.85 L56.431,108.49 L53.371,108.49 L47.641,117.85 L51.496,117.85 Z M56.326,114.43 L53.446,114.43 L54.916,112.15 L56.326,114.43 Z M79.936,117.85 C80.106,117.85 80.281,117.8075 80.461,117.7225 C80.641,117.6375 80.8035,117.53 80.9485,117.4 C81.0935,117.27 81.2135,117.1275 81.3085,116.9725 C81.4035,116.8175 81.451,116.67 81.451,116.53 L81.451,113.86 C81.451,113.8 81.421,113.735 81.361,113.665 C81.301,113.595 81.236,113.525 81.166,113.455 C81.096,113.385 81.0285,113.32 80.9635,113.26 C80.8985,113.2 80.861,113.155 80.851,113.125 L80.866,113.11 C80.896,113.08 80.9185,113.0475 80.9335,113.0125 C80.9485,112.9775 80.9635,112.9275 80.9785,112.8625 C80.9935,112.7975 81.0035,112.7125 81.0085,112.6075 C81.0135,112.5025 81.016,112.365 81.016,112.195 L81.016,109.81 C81.016,109.67 80.9685,109.5225 80.8735,109.3675 C80.7785,109.2125 80.656,109.07 80.506,108.94 C80.356,108.81 80.191,108.7025 80.011,108.6175 C79.831,108.5325 79.661,108.49 79.501,108.49 L68.836,108.49 L68.836,110.59 L77.566,110.59 L77.851,110.77 L77.851,111.94 L77.566,112.12 L68.836,112.12 L68.836,117.85 L79.936,117.85 Z M78.001,115.75 L71.926,115.75 L71.926,114.28 L78.121,114.28 L78.286,114.4 L78.286,115.57 L78.001,115.75 Z M86.326,117.85 L87.046,116.59 L92.386,116.59 L93.076,117.85 L96.931,117.85 L91.261,108.49 L88.201,108.49 L82.471,117.85 L86.326,117.85 Z M91.156,114.43 L88.276,114.43 L89.746,112.15 L91.156,114.43 Z M109.021,117.85 C109.191,117.85 109.366,117.8075 109.546,117.7225 C109.726,117.6375 109.891,117.53 110.041,117.4 C110.191,117.27 110.3135,117.1275 110.4085,116.9725 C110.5035,116.8175 110.551,116.67 110.551,116.53 L110.551,116.53 L110.551,113.845 C110.551,113.515 110.496,113.2375 110.386,113.0125 C110.276,112.7875 110.1285,112.605 109.9435,112.465 C109.7585,112.325 109.5485,112.2225 109.3135,112.1575 C109.0785,112.0925 108.841,112.06 108.601,112.06 L108.601,112.06 L101.416,112.06 L101.176,111.895 L101.176,110.77 L101.446,110.59 L110.551,110.59 L110.551,108.49 L99.526,108.49 C99.366,108.49 99.196,108.5325 99.016,108.6175 C98.836,108.7025 98.671,108.81 98.521,108.94 C98.371,109.07 98.246,109.2125 98.146,109.3675 C98.046,109.5225 97.996,109.67 97.996,109.81 L97.996,109.81 L97.996,112.495 C97.996,112.825 98.051,113.1025 98.161,113.3275 C98.271,113.5525 98.4185,113.735 98.6035,113.875 C98.7885,114.015 98.9985,114.1175 99.2335,114.1825 C99.4685,114.2475 99.706,114.28 99.946,114.28 L99.946,114.28 L107.146,114.28 L107.371,114.445 L107.371,115.57 L107.101,115.75 L97.996,115.75 L97.996,117.85 L109.021,117.85 Z M123.211,117.85 L123.211,115.75 L115.066,115.75 L115.066,114.28 L119.341,114.28 L119.341,112.12 L115.066,112.12 L115.066,110.59 L123.211,110.59 L123.211,108.49 L112.021,108.49 L112.021,117.85 L123.211,117.85 Z" id="path-1"></path>
        <path d="M3.20976172,5.304 L3.20976172,3.819625 L3.95439063,3.819625 L4.81864844,5.304 L5.30937109,5.304 L4.34013281,3.69999609 C4.81864844,3.53398047 5.05790625,3.21497005 5.05790625,2.74296484 C5.05790625,2.40605078 4.95333268,2.15377214 4.74418555,1.98612891 C4.53503841,1.81848568 4.21155208,1.73466406 3.77372656,1.73466406 L3.77372656,1.73466406 L2.79472266,1.73466406 L2.79472266,5.304 L3.20976172,5.304 Z M3.77860938,3.46317969 L3.20976172,3.46317969 L3.20976172,2.09843359 L3.7493125,2.09843359 C4.05692969,2.09843359 4.28031836,2.15051693 4.41947852,2.25468359 C4.55863867,2.35885026 4.62821875,2.5289349 4.62821875,2.7649375 C4.62821875,2.9976849 4.55985938,3.17224544 4.42314063,3.28861914 C4.28642188,3.40499284 4.07157813,3.46317969 3.77860938,3.46317969 L3.77860938,3.46317969 Z" id="path-2"></path>
    </defs>
    <g id="Page-1" stroke="none" stroke-width="1" fill="none" fill-rule="evenodd">
        <g id="lunabase" fill-rule="nonzero">
            <rect id="Rectangle_53" fill="#0B062C" x="0" y="0" width="130.638" height="130.638"></rect>
            <path d="M57.449,77.238 C57.4604078,66.579468 62.6621313,56.594355 71.3902135,50.4767561 C80.1182957,44.3591573 91.2789342,42.8757294 101.302,46.501 C96.3242517,32.1163707 82.0794799,23.0686989 66.9432175,24.677766 C51.8069551,26.2868332 39.7826793,38.1270478 37.9403328,53.2366903 C36.0979863,68.3463328 44.9248618,82.7289667 59.231,87.928 C58.044936,84.4889956 57.4426211,80.875782 57.449,77.238 L57.449,77.238 Z" id="Path_329" fill="#EE8F9C"></path>
            <path d="M60.767,80.996 C60.7756187,70.3355728 65.9773456,60.347785 74.7072399,54.2294741 C83.4371342,48.1111632 94.6004152,46.6296018 104.624,50.259 C99.6462517,35.8743707 85.4014799,26.8266989 70.2652175,28.435766 C55.1289551,30.0448332 43.1046793,41.8850478 41.2623328,56.9946903 C39.4199863,72.1043328 48.2468618,86.4869667 62.553,91.686 C61.3676707,88.2466955 60.764062,84.6338307 60.767,80.996 L60.767,80.996 Z" id="Path_330" fill="#6ADDCE"></path>
            <g id="LUNABASE">
                <use fill="#000000" xlink:href="#path-1"></use>
                <use fill="#EFEF7B" xlink:href="#path-1"></use>
            </g>
            <g id="Copy-Right" transform="translate(119.000000, 99.000000)">
                <path d="M3.81,7.315 C2.39140981,7.315 1.11261704,6.46013779 0.570308292,5.14929861 C0.0279995457,3.83845943 0.32905937,2.32999671 1.3330128,1.3277614 C2.33696624,0.325526081 3.84594241,0.0270504179 5.15585079,0.571603596 C6.46575917,1.11615677 7.31842771,2.39641189 7.31600517,3.815 C7.3126903,5.74896677 5.74396961,7.315 3.81,7.315 L3.81,7.315 Z M3.81,0.628 C2.05042079,0.628 0.624,2.05442079 0.624,3.814 C0.624,5.57357921 2.05042079,7 3.81,7 C5.56957921,7 6.996,5.57357921 6.996,3.814 C6.996,2.05442079 5.56957921,0.628 3.81,0.628 L3.81,0.628 Z" id="Path_331" fill="#EFEF7B"></path>
                <g id="R">
                    <use fill="#000000" xlink:href="#path-2"></use>
                    <use fill="#EFEF7B" xlink:href="#path-2"></use>
                </g>
            </g>
        </g>
    </g>
</svg>