<?xml version="1.0" encoding="UTF-8"?>
<svg width="311px" height="90px" viewBox="0 0 311 90" version="1.1" xmlns="http://www.w3.org/2000/svg" xmlns:xlink="http://www.w3.org/1999/xlink">
    <title>playstore</title>
    <defs>
        <path d="M131.044922,61.4945625 C136.772461,61.4945625 140.15625,58.0814766 140.15625,52.3539375 L140.15625,50.2006172 L131.455078,50.2006172 L131.455078,52.8519844 L136.918945,52.8519844 L136.918945,53.2181953 C136.875,56.4262031 134.501953,58.6234687 131.074219,58.6234687 C127.045898,58.6234687 124.541016,55.5033516 124.541016,50.4496406 C124.541016,45.4838203 126.972656,42.5248359 131.015625,42.5248359 C133.769531,42.5248359 135.834961,44.033625 136.625977,46.6556953 L139.995117,46.6556953 C139.262695,42.4369453 135.703125,39.6537422 131.000977,39.6537422 C124.980469,39.6537422 121.186523,43.8138984 121.186523,50.4789375 C121.186523,57.2611641 124.995117,61.4945625 131.044922,61.4945625 Z M149.604492,61.4359687 C154.013672,61.4359687 156.914062,58.4037422 156.914062,53.4379219 C156.914062,48.48675 153.999023,45.4545234 149.604492,45.4545234 C145.209961,45.4545234 142.294922,48.48675 142.294922,53.4379219 C142.294922,58.4037422 145.195312,61.4359687 149.604492,61.4359687 Z M149.604492,58.8285469 C147.128906,58.8285469 145.517578,56.8656562 145.517578,53.4379219 C145.517578,50.0248359 147.128906,48.0619453 149.604492,48.0619453 C152.080078,48.0619453 153.691406,50.0248359 153.691406,53.4379219 C153.691406,56.8656562 152.094727,58.8285469 149.604492,58.8285469 Z M165.981445,61.4359687 C170.390625,61.4359687 173.291016,58.4037422 173.291016,53.4379219 C173.291016,48.48675 170.375977,45.4545234 165.981445,45.4545234 C161.586914,45.4545234 158.671875,48.48675 158.671875,53.4379219 C158.671875,58.4037422 161.572266,61.4359687 165.981445,61.4359687 Z M165.981445,58.8285469 C163.505859,58.8285469 161.894531,56.8656562 161.894531,53.4379219 C161.894531,50.0248359 163.505859,48.0619453 165.981445,48.0619453 C168.457031,48.0619453 170.068359,50.0248359 170.068359,53.4379219 C170.068359,56.8656562 168.47168,58.8285469 165.981445,58.8285469 Z M182.329102,66.9437812 C186.723633,66.9437812 189.56543,64.5414375 189.56543,60.8646797 L189.56543,45.7328437 L186.489258,45.7328437 L186.489258,48.3695625 L186.430664,48.3695625 C185.493164,46.5824531 183.706055,45.4838203 181.523438,45.4838203 C177.568359,45.4838203 175.048828,48.5306953 175.048828,53.3793281 C175.048828,58.1840156 177.583008,61.2015937 181.450195,61.2015937 C183.647461,61.2015937 185.463867,60.1029609 186.328125,58.4330391 L186.386719,58.4330391 L186.386719,60.9672187 C186.386719,63.0765937 184.921875,64.4828437 182.446289,64.4828437 C180.644531,64.4828437 179.238281,63.6332344 178.78418,62.3441719 L175.605469,62.3441719 C176.000977,65.0101875 178.696289,66.9437812 182.329102,66.9437812 Z M182.299805,58.5795234 C179.868164,58.5795234 178.286133,56.6166328 178.286133,53.3939766 C178.286133,50.1859687 179.868164,48.1498359 182.299805,48.1498359 C184.775391,48.1498359 186.401367,50.2299141 186.401367,53.3939766 C186.401367,56.5726875 184.775391,58.5795234 182.299805,58.5795234 Z M195.966797,61.143 L195.966797,40.0053047 L192.802734,40.0053047 L192.802734,61.143 L195.966797,61.143 Z M205.795898,61.4359687 C209.326172,61.4359687 211.992188,59.4291328 212.431641,56.6166328 L209.428711,56.6166328 C209.003906,57.9642891 207.670898,58.8724922 205.869141,58.8724922 C203.334961,58.8724922 201.723633,57.1000312 201.723633,54.4193672 L201.723633,54.2289375 L212.607422,54.2289375 L212.607422,53.1449531 C212.607422,48.4721016 209.941406,45.4545234 205.664062,45.4545234 C201.313477,45.4545234 198.530273,48.6771797 198.530273,53.5111641 C198.530273,58.3744453 201.269531,61.4359687 205.795898,61.4359687 Z M209.443359,52.0170234 L201.738281,52.0170234 C201.899414,49.6879219 203.452148,48.0033516 205.664062,48.0033516 C207.875977,48.0033516 209.370117,49.658625 209.443359,52.0170234 Z M224.794922,61.143 L224.794922,53.9213203 L229.335938,53.9213203 C233.481445,53.9213203 236.396484,51.0795234 236.396484,46.9486641 C236.396484,42.8324531 233.540039,40.0053047 229.438477,40.0053047 L221.513672,40.0053047 L221.513672,61.143 L224.794922,61.143 Z M228.55957,51.1674141 L224.794922,51.1674141 L224.794922,42.7738594 L228.574219,42.7738594 C231.416016,42.7738594 233.041992,44.2972969 233.041992,46.9633125 C233.041992,49.6293281 231.416016,51.1674141 228.55957,51.1674141 Z M242.167969,61.143 L242.167969,40.0053047 L239.003906,40.0053047 L239.003906,61.143 L242.167969,61.143 Z M249.931641,61.4066719 C251.953125,61.4066719 253.901367,60.3226875 254.794922,58.6088203 L254.868164,58.6088203 L254.868164,61.143 L257.900391,61.143 L257.900391,50.5228828 C257.900391,47.4320625 255.512695,45.4545234 251.777344,45.4545234 C247.96875,45.4545234 245.595703,47.5053047 245.419922,50.2885078 L248.408203,50.2885078 C248.686523,48.9115547 249.829102,48.0326484 251.660156,48.0326484 C253.59375,48.0326484 254.750977,49.0580391 254.750977,50.7719062 L254.750977,51.9584297 L250.532227,52.2074531 C246.870117,52.4125312 244.804688,54.0678047 244.804688,56.7631172 C244.804688,59.5316719 246.914062,61.4066719 249.931641,61.4066719 Z M250.810547,58.9017891 C249.111328,58.9017891 247.998047,58.0228828 247.998047,56.6752266 C247.998047,55.3568672 249.067383,54.5219062 250.957031,54.3900703 L254.750977,54.1556953 L254.750977,55.3715156 C254.750977,57.3783516 253.022461,58.9017891 250.810547,58.9017891 Z M262.5,66.8851875 C265.693359,66.8851875 267.216797,65.6840156 268.535156,61.9486641 L274.306641,45.7328437 L270.966797,45.7328437 L267.070312,58.2719062 L267.011719,58.2719062 L263.115234,45.7328437 L259.6875,45.7328437 L265.253906,61.1576484 C265.253906,61.1722969 264.975586,62.0805 264.975586,62.1097969 C264.492188,63.6918281 263.701172,64.3070625 262.236328,64.3070625 C261.972656,64.3070625 261.445312,64.3070625 261.210938,64.2484687 L261.210938,66.8119453 C261.445312,66.8558906 262.236328,66.8851875 262.5,66.8851875 Z" id="path-1"></path>
    </defs>
    <g id="Page-1" stroke="none" stroke-width="1" fill="none" fill-rule="evenodd">
        <g id="playstore" fill-rule="nonzero">
            <rect id="Rectangle_545" fill="#FFFFFF" x="0" y="0" width="311" height="90" rx="20"></rect>
            <g id="GooglePlay">
                <use fill="#000000" xlink:href="#path-1"></use>
                <use fill="#343537" xlink:href="#path-1"></use>
            </g>
            <path d="M48.58,20.637 C47.3176532,19.8646056 45.7485923,19.7892063 44.418,20.437 L66.866,42.937 L74.206,35.563 L48.58,20.637 Z M42.356,22.52 C42.0683313,23.1308507 41.9194368,23.7978026 41.9199629,24.473 L41.9199629,65.624 C41.9172492,66.2936744 42.067396,66.9551414 42.359,67.558 L64.8,45.011 L42.356,22.52 Z M66.87,47.086 L44.457,69.6 C45.0401035,69.8672407 45.6745851,70.0037618 46.316,70.0001968 C47.112255,70.0075699 47.8953318,69.7965819 48.58,69.39 L74.212,54.444 L66.87,47.086 Z M83.97,41.244 L83.943,41.227 L76.828,37.083 L68.94,45.008 L76.833,52.917 L83.971,48.756 C85.2808401,47.9571576 86.0799942,46.5337197 86.0799942,44.9995 C86.0799942,43.4652803 85.2808401,42.0418424 83.971,41.243 L83.97,41.244 Z" id="Path_992" fill="#343537"></path>
            <path d="M128.810547,37.2324219 C129.653646,37.2324219 130.388509,37.0638021 131.015137,36.7265625 C131.641764,36.3893229 132.129395,35.9176432 132.478027,35.3115234 C132.82666,34.7054036 133.000977,33.9967448 133.000977,33.1855469 L133.000977,31.9824219 L129.001953,31.9824219 L129.001953,33.0625 L131.770508,33.0625 L131.770508,33.3017578 C131.770508,33.8577474 131.647461,34.3453776 131.401367,34.7646484 C131.155273,35.1839193 130.810059,35.5109049 130.365723,35.7456055 C129.921387,35.980306 129.405273,36.0976562 128.817383,36.0976562 C128.156576,36.0976562 127.585775,35.9347331 127.10498,35.6088867 C126.624186,35.2830404 126.252767,34.8181966 125.990723,34.2143555 C125.728678,33.6105143 125.597656,32.8961589 125.597656,32.0712891 L125.597656,32.0576172 C125.597656,31.241862 125.729818,30.5332031 125.994141,29.9316406 C126.258464,29.3300781 126.631022,28.8640951 127.111816,28.5336914 C127.592611,28.2032878 128.158854,28.0380859 128.810547,28.0380859 C129.544271,28.0380859 130.154948,28.2067057 130.642578,28.5439453 C131.130208,28.8811849 131.474284,29.3688151 131.674805,30.0068359 L131.695312,30.0751953 L132.939453,30.0751953 L132.925781,30.0068359 C132.798177,29.382487 132.548665,28.8378906 132.177246,28.3730469 C131.805827,27.9082031 131.334147,27.5470378 130.762207,27.2895508 C130.190267,27.0320638 129.539714,26.9033203 128.810547,26.9033203 C127.91276,26.9033203 127.127767,27.1163737 126.455566,27.5424805 C125.783366,27.9685872 125.262695,28.5678711 124.893555,29.340332 C124.524414,30.112793 124.339844,31.0185547 124.339844,32.0576172 L124.339844,32.0712891 C124.339844,33.1194661 124.523275,34.0309245 124.890137,34.8056641 C125.256999,35.5804036 125.775391,36.1785482 126.445312,36.6000977 C127.115234,37.0216471 127.903646,37.2324219 128.810547,37.2324219 Z M137.881836,37.1298828 C138.314779,37.1298828 138.705566,37.074056 139.054199,36.9624023 C139.402832,36.8507487 139.704753,36.7003581 139.959961,36.5112305 C140.215169,36.3221029 140.423665,36.1101888 140.585449,35.8754883 C140.747233,35.6407878 140.860026,35.398112 140.923828,35.1474609 L140.9375,35.0927734 L139.748047,35.0927734 L139.720703,35.1542969 C139.656901,35.3001302 139.545247,35.4436849 139.385742,35.5849609 C139.226237,35.726237 139.023438,35.8424479 138.777344,35.9335938 C138.53125,36.0247396 138.241862,36.0703125 137.90918,36.0703125 C137.462565,36.0703125 137.075195,35.9711914 136.74707,35.7729492 C136.418945,35.574707 136.166016,35.2898763 135.988281,34.918457 C135.835938,34.6000977 135.748884,34.2256557 135.727121,33.7951311 L135.723,33.658 L141.026367,33.6572266 L141.026367,33.1923828 C141.026367,32.4586589 140.897624,31.8149414 140.640137,31.2612305 C140.38265,30.7075195 140.013509,30.2757161 139.532715,29.9658203 C139.051921,29.6559245 138.476562,29.5009766 137.806641,29.5009766 C137.141276,29.5009766 136.560221,29.6627604 136.063477,29.9863281 C135.566732,30.3098958 135.18278,30.7587891 134.911621,31.3330078 C134.640462,31.9072266 134.504883,32.5748698 134.504883,33.3359375 L134.504883,33.3427734 C134.504883,34.1129557 134.640462,34.7817383 134.911621,35.3491211 C135.18278,35.9165039 135.57015,36.3551432 136.07373,36.6650391 C136.577311,36.9749349 137.180013,37.1298828 137.881836,37.1298828 Z M139.813,32.708 L135.74,32.708 L135.744001,32.6520647 C135.781203,32.2935268 135.864909,31.9791667 135.995117,31.7089844 C136.177409,31.3307292 136.424642,31.0447591 136.736816,30.8510742 C137.048991,30.6573893 137.40332,30.5605469 137.799805,30.5605469 C138.196289,30.5605469 138.547201,30.652832 138.852539,30.8374023 C139.157878,31.0219727 139.397135,31.3011068 139.570312,31.6748047 C139.69401,31.9417318 139.773531,32.2609747 139.808873,32.6325335 L139.813,32.708 Z M145.339844,37.0546875 C145.458333,37.0546875 145.574544,37.0478516 145.688477,37.0341797 C145.802409,37.0205078 145.916341,37.0045573 146.030273,36.9863281 L146.030273,35.9746094 C145.920898,35.983724 145.828613,35.9905599 145.753418,35.9951172 C145.678223,35.9996745 145.588216,36.0019531 145.483398,36.0019531 C145.100586,36.0019531 144.827148,35.9073893 144.663086,35.7182617 C144.499023,35.5291341 144.416992,35.218099 144.416992,34.7851562 L144.416992,30.6152344 L146.030273,30.6152344 L146.030273,29.6308594 L144.416992,29.6308594 L144.416992,27.7236328 L143.186523,27.7236328 L143.186523,29.6308594 L142.024414,29.6308594 L142.024414,30.6152344 L143.186523,30.6152344 L143.186523,35.0859375 C143.186523,35.7877604 143.356283,36.2913411 143.695801,36.5966797 C144.035319,36.9020182 144.583333,37.0546875 145.339844,37.0546875 Z M152.086914,28.2089844 C152.314779,28.2089844 152.508464,28.1280924 152.667969,27.9663086 C152.827474,27.8045247 152.907227,27.6119792 152.907227,27.3886719 C152.907227,27.1608073 152.827474,26.9671224 152.667969,26.8076172 C152.508464,26.648112 152.314779,26.5683594 152.086914,26.5683594 C151.863607,26.5683594 151.671061,26.648112 151.509277,26.8076172 C151.347493,26.9671224 151.266602,27.1608073 151.266602,27.3886719 C151.266602,27.6119792 151.347493,27.8045247 151.509277,27.9663086 C151.671061,28.1280924 151.863607,28.2089844 152.086914,28.2089844 Z M152.674805,37 L152.674805,29.6308594 L151.485352,29.6308594 L151.485352,37 L152.674805,37 Z M157.384766,37.0546875 C157.503255,37.0546875 157.619466,37.0478516 157.733398,37.0341797 C157.847331,37.0205078 157.961263,37.0045573 158.075195,36.9863281 L158.075195,35.9746094 C157.96582,35.983724 157.873535,35.9905599 157.79834,35.9951172 C157.723145,35.9996745 157.633138,36.0019531 157.52832,36.0019531 C157.145508,36.0019531 156.87207,35.9073893 156.708008,35.7182617 C156.543945,35.5291341 156.461914,35.218099 156.461914,34.7851562 L156.461914,30.6152344 L158.075195,30.6152344 L158.075195,29.6308594 L156.461914,29.6308594 L156.461914,27.7236328 L155.231445,27.7236328 L155.231445,29.6308594 L154.069336,29.6308594 L154.069336,30.6152344 L155.231445,30.6152344 L155.231445,35.0859375 C155.231445,35.7877604 155.401204,36.2913411 155.740723,36.5966797 C156.080241,36.9020182 156.628255,37.0546875 157.384766,37.0546875 Z M166.53125,37.1298828 C167.233073,37.1298828 167.836914,36.9760742 168.342773,36.668457 C168.848633,36.3608398 169.239421,35.9222005 169.515137,35.3525391 C169.790853,34.7828776 169.928711,34.1061198 169.928711,33.3222656 L169.928711,33.3085938 C169.928711,32.5201823 169.790853,31.8411458 169.515137,31.2714844 C169.239421,30.7018229 168.848633,30.2643229 168.342773,29.9589844 C167.836914,29.6536458 167.233073,29.5009766 166.53125,29.5009766 C165.833984,29.5009766 165.231283,29.6536458 164.723145,29.9589844 C164.215007,30.2643229 163.823079,30.7018229 163.547363,31.2714844 C163.271647,31.8411458 163.133789,32.5201823 163.133789,33.3085938 L163.133789,33.3222656 C163.133789,34.1061198 163.271647,34.7828776 163.547363,35.3525391 C163.823079,35.9222005 164.215007,36.3608398 164.723145,36.668457 C165.231283,36.9760742 165.833984,37.1298828 166.53125,37.1298828 Z M166.53125,36.0771484 C166.066406,36.0771484 165.672201,35.9677734 165.348633,35.7490234 C165.025065,35.5302734 164.777832,35.2158203 164.606934,34.8056641 C164.436035,34.3955078 164.350586,33.9010417 164.350586,33.3222656 L164.350586,33.3085938 C164.350586,32.7252604 164.436035,32.2285156 164.606934,31.8183594 C164.777832,31.4082031 165.025065,31.0948893 165.348633,30.878418 C165.672201,30.6619466 166.066406,30.5537109 166.53125,30.5537109 C166.996094,30.5537109 167.390299,30.6619466 167.713867,30.878418 C168.037435,31.0948893 168.284668,31.4082031 168.455566,31.8183594 C168.626465,32.2285156 168.711914,32.7252604 168.711914,33.3085938 L168.711914,33.3222656 C168.711914,33.9010417 168.626465,34.3955078 168.455566,34.8056641 C168.284668,35.2158203 168.037435,35.5302734 167.713867,35.7490234 C167.390299,35.9677734 166.996094,36.0771484 166.53125,36.0771484 Z M172.813477,37 L172.813477,32.6386719 C172.813477,32.2057292 172.89209,31.8343099 173.049316,31.5244141 C173.206543,31.2145182 173.428711,30.9752604 173.71582,30.8066406 C174.00293,30.6380208 174.342448,30.5537109 174.734375,30.5537109 C175.322266,30.5537109 175.756348,30.7143555 176.036621,31.0356445 C176.316895,31.3569336 176.457031,31.8502604 176.457031,32.515625 L176.457031,37 L177.646484,37 L177.646484,32.2285156 C177.646484,31.3535156 177.424316,30.6801758 176.97998,30.2084961 C176.535645,29.7368164 175.898763,29.5009766 175.069336,29.5009766 C174.527018,29.5009766 174.080404,29.6092122 173.729492,29.8256836 C173.378581,30.0421549 173.109701,30.3463542 172.922852,30.7382812 L172.813477,30.7382812 L172.813477,29.6308594 L171.624023,29.6308594 L171.624023,37 L172.813477,37 Z" id="Getiton" fill="#343537"></path>
        </g>
    </g>
</svg>