<svg xmlns="http://www.w3.org/2000/svg" xmlns:xlink="http://www.w3.org/1999/xlink" width="196.471" height="51.812" viewBox="0 0 196.471 51.812">
  <defs>
    <linearGradient id="linear-gradient" y1="0.145" x2="1" y2="1" gradientUnits="objectBoundingBox">
      <stop offset="0" stop-color="#343537"/>
      <stop offset="1" stop-color="#ffedd0"/>
    </linearGradient>
  </defs>
  <g id="Logo" transform="translate(-113.083 -54.946)">
    <g id="Group_129" data-name="Group 129" transform="translate(113.083 54.946)">
      <path id="Path_296" data-name="Path 296" d="M741.857,212.605a13.534,13.534,0,0,1-8.7-3.061,9.926,9.926,0,0,1-3.708-7.621V181.1c0-5.087,4.2-9.494,10-10.48l5.511-.936a113.521,113.521,0,0,1,18.968-1.6l.893.893v40.787l-.893.893a111.757,111.757,0,0,0-18.667,1.571l-.994.168A14.253,14.253,0,0,1,741.857,212.605Zm21.178-42.726a111.693,111.693,0,0,0-17.774,1.569l-5.511.936c-4.934.84-8.514,4.5-8.514,8.718v20.821a8.162,8.162,0,0,0,3.075,6.256,11.959,11.959,0,0,0,9.656,2.462l.994-.17a113.508,113.508,0,0,1,18.074-1.592Z" transform="translate(-729.449 -160.793)" fill="url(#linear-gradient)"/>
      <path id="Path_297" data-name="Path 297" d="M762.045,212.075a.874.874,0,0,1-.225-.029,87.512,87.512,0,0,0-16.257-2.677l-.863-.055c-6.729-.447-12.856-6.942-12.856-13.628V174.865a8.4,8.4,0,0,1,2.537-6.243,8.551,8.551,0,0,1,6.493-2.139l4.808.318a89.283,89.283,0,0,1,16.587,2.73.893.893,0,0,1,.668.863v40.787a.894.894,0,0,1-.893.893ZM740.19,168.246a6.258,6.258,0,0,0-6.56,6.619v20.821c0,5.709,5.436,11.465,11.186,11.845l.865.055a88.946,88.946,0,0,1,15.471,2.446V171.088a87.35,87.35,0,0,0-15.589-2.5l-4.807-.318C740.565,168.254,740.378,168.246,740.19,168.246Z" transform="translate(-727.566 -162.074)" fill="url(#linear-gradient)"/>
      <path id="Path_298" data-name="Path 298" d="M759.108,214.006a.9.9,0,0,1-.454-.123,66.849,66.849,0,0,0-12.517-5.8l-.668-.225c-5.178-1.739-9.894-9.32-9.894-15.9V171.132c0-2.843.906-5.06,2.55-6.243a5.267,5.267,0,0,1,4.867-.532l3.713,1.247a68.783,68.783,0,0,1,12.857,5.952.9.9,0,0,1,.44.77v40.787a.894.894,0,0,1-.893.893Zm-18.154-48.217a3,3,0,0,0-1.785.55c-1.149.826-1.806,2.573-1.806,4.792v20.822c0,5.807,4.215,12.714,8.675,14.211l.668.223a67.439,67.439,0,0,1,11.509,5.18V172.84a66.458,66.458,0,0,0-12.077-5.543l-3.713-1.247A4.658,4.658,0,0,0,740.954,165.789Z" transform="translate(-724.629 -164.006)" fill="url(#linear-gradient)"/>
    </g>
    <path id="Path_368" data-name="Path 368" d="M1.384,6.681V25H6.043V19.63h3c4.075,0,6.881-2.552,6.881-6.462,0-3.936-2.666-6.487-6.6-6.487Zm4.659,3.567H8.087c1.955,0,3.123,1.028,3.123,2.933s-1.168,2.945-3.148,2.945H6.043ZM22.661,22.105c-1.066,0-1.79-.533-1.79-1.409,0-.812.66-1.358,1.841-1.447l2.514-.165v.952A2.324,2.324,0,0,1,22.661,22.105Zm-1.6,3.1a4.627,4.627,0,0,0,4.1-2.171h.089V25h4.38V15.517c0-2.78-2.45-4.672-6.145-4.672-3.859,0-6.271,1.866-6.4,4.7h4.05a1.919,1.919,0,0,1,2.12-1.485c1.181,0,1.968.609,1.968,1.714v.787l-3.237.19c-3.58.216-5.573,1.663-5.573,4.253C16.415,23.5,18.5,25.2,21.062,25.2ZM40.536,10.972a4.308,4.308,0,0,0-4.189,2.666h-.089V11.175H31.776V29.469h4.507v-6.83h.089A4.313,4.313,0,0,0,40.6,25.2c3.44,0,5.459-2.6,5.459-7.109S44.027,10.972,40.536,10.972ZM38.86,21.687c-1.587,0-2.59-1.4-2.6-3.593.013-2.184,1.028-3.605,2.6-3.605s2.6,1.409,2.6,3.605S40.46,21.687,38.86,21.687Zm15.488-7.643a2.434,2.434,0,0,1,2.5,2.463H51.822A2.527,2.527,0,0,1,54.349,14.044Zm2.6,6.589a2.428,2.428,0,0,1-2.463,1.511,2.629,2.629,0,0,1-2.729-2.793v-.279H61.09V17.8c0-4.228-2.653-6.957-6.817-6.957-4.228,0-6.881,2.844-6.881,7.313s2.628,7.173,7.033,7.173c3.618,0,6.157-1.841,6.589-4.7ZM62.829,25h4.507V17.726a2.666,2.666,0,0,1,2.92-3,4.024,4.024,0,0,1,1.435.254V11.149a3.271,3.271,0,0,0-1.143-.178c-1.625,0-2.742.952-3.25,2.818h-.089V11.175h-4.38Zm18.916.317c4.723,0,8.1-2.869,8.315-7.224H85.579a3.746,3.746,0,0,1-3.821,3.491c-2.564,0-4.164-2.171-4.164-5.764,0-3.555,1.612-5.726,4.151-5.726a3.761,3.761,0,0,1,3.809,3.58h4.481c-.14-4.329-3.656-7.312-8.29-7.312-5.459,0-8.9,3.491-8.9,9.471S76.261,25.317,81.745,25.317ZM92.016,25h4.507V6.681H92.016Zm13.394.33c4.354,0,7.071-2.628,7.071-7.249,0-4.532-2.755-7.236-7.071-7.236-4.291,0-7.071,2.717-7.071,7.236C98.338,22.689,101.055,25.33,105.409,25.33Zm0-3.3c-1.549,0-2.5-1.409-2.5-3.936,0-2.488.978-3.948,2.5-3.948s2.514,1.46,2.514,3.948C107.923,20.62,106.945,22.029,105.409,22.029ZM127.7,11.175h-4.494V19a2.309,2.309,0,0,1-2.285,2.6c-1.409,0-2.26-.876-2.26-2.514V11.175h-4.507v8.887a4.816,4.816,0,0,0,5.065,5.205,3.946,3.946,0,0,0,4.024-2.882h.089V25H127.7ZM134.964,25.2a4.355,4.355,0,0,0,4.215-2.577h.089V25h4.469V6.681h-4.494v6.932h-.089a4.283,4.283,0,0,0-4.139-2.641c-3.453,0-5.561,2.666-5.561,7.084C129.454,22.524,131.523,25.2,134.964,25.2Zm1.688-10.715c1.612,0,2.6,1.384,2.6,3.605,0,2.247-.978,3.593-2.6,3.593s-2.59-1.358-2.59-3.593S135.04,14.488,136.652,14.488Z" transform="translate(165.818 65.577)" fill="#343537"/>
  </g>
</svg>
